<?xml version="1.0" standalone="no"?>
<!DOCTYPE svg PUBLIC "-//W3C//DTD SVG 20010904//EN"
 "http://www.w3.org/TR/2001/REC-SVG-20010904/DTD/svg10.dtd">
<svg version="1.0" xmlns="http://www.w3.org/2000/svg"
 width="500.000000pt" height="500.000000pt" viewBox="0 0 500.000000 500.000000"
 preserveAspectRatio="xMidYMid meet">
<metadata>
Created by potrace 1.16, written by Peter Selinger 2001-2019
</metadata>
<g transform="translate(0.000000,500.000000) scale(0.100000,-0.100000)"
fill="#000000" stroke="none">
<path d="M1403 4450 c-62 -14 -129 -75 -162 -145 -21 -44 -21 -52 -21 -913 0
-662 -3 -871 -12 -880 -9 -9 -9 -15 0 -24 9 -9 12 -206 12 -823 l0 -811 28
-55 c30 -60 99 -119 162 -138 27 -8 332 -11 1072 -11 1152 0 1102 -3 1179 67
22 20 50 55 62 77 l22 41 3 819 c2 761 4 820 20 833 16 12 16 14 0 26 -16 13
-18 73 -20 888 -3 873 -3 874 -24 914 -28 51 -68 91 -119 119 l-40 21 -1065 2
c-586 0 -1080 -2 -1097 -7z m2175 -55 c47 -20 79 -50 103 -97 18 -36 19 -86
19 -1736 0 -1815 2 -1733 -47 -1787 -10 -12 -34 -32 -53 -45 l-35 -25 -1060
-3 c-1178 -3 -1107 -7 -1178 65 -72 71 -68 -58 -65 1808 l3 1680 22 40 c24 45
54 75 98 98 27 15 144 16 1093 17 937 0 1067 -2 1100 -15z"/>
<path d="M1479 4247 c-64 -43 -69 -65 -69 -320 0 -263 4 -281 75 -322 l42 -25
960 0 960 0 33 23 c74 50 75 52 78 315 3 265 -1 284 -68 330 l-33 22 -972 0
-972 0 -34 -23z m1981 -32 c55 -28 60 -52 60 -287 0 -234 -3 -247 -59 -285
l-34 -23 -939 0 c-1028 0 -991 -2 -1022 59 -23 43 -23 448 -1 491 32 62 -21
59 1018 60 828 0 952 -2 977 -15z"/>
<path d="M2899 4117 c-36 -27 -53 -97 -25 -97 8 0 21 12 28 27 28 56 78 57 78
2 0 -43 -20 -108 -42 -141 -20 -29 -63 -38 -70 -16 -6 18 -38 1 -38 -21 0 -29
17 -35 92 -37 48 -1 68 2 72 12 3 7 -2 17 -10 22 -13 8 -13 14 7 53 31 59 39
162 14 189 -21 23 -81 27 -106 7z"/>
<path d="M3219 4101 c-19 -19 -29 -40 -29 -59 0 -39 35 -82 66 -82 30 0 41
-24 24 -55 -22 -42 -73 -44 -85 -4 -9 27 -29 19 -33 -13 -2 -18 4 -31 20 -42
67 -47 159 21 145 107 -3 20 0 40 9 52 20 27 18 88 -4 108 -30 27 -79 21 -113
-12z"/>
<path d="M1485 3371 c-63 -39 -70 -54 -73 -171 -4 -124 8 -165 62 -203 l31
-22 976 0 975 0 36 25 c54 37 68 75 68 188 0 110 -15 147 -72 182 -32 20 -53
20 -1003 20 -927 0 -971 -1 -1000 -19z m1997 -50 c30 -27 33 -34 36 -105 5
-99 -3 -138 -35 -170 l-26 -26 -972 0 -972 0 -26 24 c-34 32 -40 58 -36 162 4
84 5 87 39 115 l34 29 963 0 963 0 32 -29z"/>
<path d="M1474 2801 c-40 -24 -64 -77 -64 -138 0 -62 27 -106 81 -133 37 -19
55 -21 159 -18 101 3 123 6 146 24 50 37 66 67 66 126 1 67 -16 105 -61 135
-31 21 -45 23 -165 23 -111 0 -136 -3 -162 -19z m317 -50 c24 -25 29 -38 29
-79 0 -59 -25 -97 -73 -109 -18 -5 -80 -6 -139 -3 -122 6 -144 18 -155 83 -8
49 3 84 34 113 25 23 33 24 150 24 124 0 125 0 154 -29z"/>
<path d="M2065 2808 c-32 -18 -63 -58 -69 -91 -18 -87 7 -149 74 -184 37 -20
58 -23 148 -23 133 0 180 19 211 84 38 78 19 159 -48 203 -31 21 -45 23 -165
23 -79 0 -139 -5 -151 -12z m293 -44 c12 -8 29 -28 37 -44 20 -40 6 -107 -30
-137 -24 -21 -36 -23 -146 -23 -67 0 -129 5 -141 11 -22 12 -48 66 -48 100 0
33 29 85 53 97 12 6 74 11 137 11 89 1 121 -3 138 -15z"/>
<path d="M2578 2805 c-67 -37 -92 -157 -45 -226 36 -54 76 -68 198 -69 123 0
165 13 203 63 22 28 26 45 26 96 0 71 -21 110 -70 136 -40 21 -273 20 -312 0z
m313 -54 c25 -25 29 -37 29 -84 0 -49 -3 -58 -31 -81 -17 -14 -38 -26 -47 -27
-86 -3 -229 4 -244 12 -42 23 -61 109 -34 158 23 42 52 50 179 51 118 0 119 0
148 -29z"/>
<path d="M3159 2793 c-60 -51 -74 -125 -38 -199 31 -66 78 -84 215 -84 94 0
114 3 148 23 96 55 103 203 13 265 -30 20 -45 22 -169 22 -134 0 -137 -1 -169
-27z m311 -26 c30 -23 50 -62 50 -95 0 -40 -23 -88 -49 -102 -31 -16 -247 -13
-280 5 -35 18 -41 32 -41 98 1 92 26 106 185 106 79 0 125 -4 135 -12z"/>
<path d="M1491 2438 c-66 -34 -81 -71 -81 -191 0 -113 14 -154 64 -190 27 -19
46 -22 147 -26 135 -4 174 9 215 68 22 32 24 46 24 145 0 92 -3 114 -20 141
-37 59 -62 69 -190 73 -104 3 -119 1 -159 -20z m301 -58 l30 -30 -4 -111 c-3
-107 -4 -112 -31 -135 -26 -23 -35 -24 -150 -24 -169 1 -187 17 -187 165 0
149 18 164 188 165 l124 0 30 -30z"/>
<path d="M2081 2444 c-72 -31 -95 -87 -90 -222 4 -97 16 -124 73 -166 24 -19
42 -21 156 -21 146 0 165 8 207 81 19 32 23 55 23 125 0 126 -32 187 -111 209
-53 15 -218 12 -258 -6z m293 -65 c24 -29 26 -37 26 -134 0 -97 -2 -105 -26
-134 l-26 -31 -127 0 -127 0 -30 31 c-27 28 -29 36 -31 112 -2 105 3 131 34
162 25 24 30 25 153 25 l128 0 26 -31z"/>
<path d="M2594 2440 c-65 -33 -84 -78 -84 -195 0 -80 4 -104 21 -134 38 -67
59 -76 194 -79 136 -4 171 8 213 68 19 29 22 45 22 142 0 123 -10 152 -62 190
-29 20 -46 23 -148 26 -100 3 -120 0 -156 -18z m297 -59 c28 -29 29 -32 29
-136 0 -104 -1 -107 -29 -136 -32 -31 -36 -32 -185 -29 -134 3 -156 25 -156
160 0 153 18 169 188 170 123 0 124 0 153 -29z"/>
<path d="M3206 2450 c-78 -24 -111 -99 -104 -235 5 -91 17 -118 72 -159 24
-19 42 -21 156 -21 143 0 161 7 208 75 19 29 22 46 22 131 0 115 -13 152 -68
189 -32 22 -47 25 -146 27 -61 1 -124 -2 -140 -7z m273 -61 c32 -30 41 -61 41
-144 0 -83 -9 -114 -41 -144 -21 -19 -35 -21 -147 -21 -123 0 -124 0 -153 29
-28 29 -29 32 -29 134 0 99 2 107 26 136 l26 31 127 0 c115 0 129 -2 150 -21z"/>
<path d="M1519 1918 c-18 -3 -48 -22 -68 -42 l-36 -36 -3 -118 c-4 -141 9
-174 78 -209 38 -20 60 -23 148 -23 120 0 166 17 202 75 20 32 21 46 18 155
l-3 120 -38 37 -37 38 -115 5 c-63 3 -129 2 -146 -2z m267 -72 l34 -34 0 -98
c0 -59 -5 -109 -13 -124 -21 -42 -71 -60 -170 -60 -158 0 -187 28 -187 186 0
96 0 96 34 130 l34 34 117 0 117 0 34 -34z"/>
<path d="M2115 1919 c-46 -8 -83 -35 -107 -79 -16 -30 -19 -52 -16 -142 3
-115 12 -138 72 -182 24 -19 42 -21 156 -21 148 0 168 8 208 85 31 62 32 194
1 257 -32 66 -56 77 -175 83 -57 3 -119 2 -139 -1z m236 -54 c41 -21 49 -50
49 -163 0 -107 -9 -131 -60 -157 -39 -20 -200 -21 -238 -1 -57 29 -63 45 -65
166 l-2 112 33 29 c32 28 35 29 143 29 80 0 118 -4 140 -15z"/>
<path d="M3205 1914 c-48 -16 -80 -51 -94 -102 -7 -23 -11 -188 -11 -429 0
-332 2 -399 16 -431 31 -80 80 -102 223 -102 118 0 149 12 195 73 21 28 21 38
21 467 0 430 0 439 -21 467 -39 52 -76 66 -188 68 -66 2 -115 -2 -141 -11z
m255 -49 c16 -8 34 -24 40 -34 6 -13 10 -172 10 -444 l0 -425 -29 -31 c-16
-17 -37 -31 -48 -32 -175 -9 -225 0 -261 46 -22 27 -22 32 -22 447 l0 420 34
34 34 34 106 0 c76 0 116 -4 136 -15z"/>
<path d="M2579 1897 c-54 -36 -69 -77 -69 -191 0 -173 46 -216 230 -216 93 0
108 3 147 25 63 38 73 64 73 199 l0 116 -43 45 -44 45 -130 0 c-119 0 -133 -2
-164 -23z m307 -51 l34 -34 0 -101 c0 -154 -28 -181 -184 -181 -155 0 -186 29
-186 175 0 92 13 132 52 159 17 12 49 16 136 16 l114 0 34 -34z"/>
<path d="M1491 1352 c-66 -33 -76 -58 -76 -195 0 -110 2 -125 22 -153 37 -51
76 -64 200 -64 123 0 162 14 201 70 20 29 22 45 22 145 0 100 -2 116 -22 145
-39 57 -78 70 -203 70 -85 0 -118 -4 -144 -18z m301 -61 c30 -33 30 -33 26
-142 -3 -103 -4 -110 -31 -136 -26 -27 -32 -28 -140 -31 -99 -2 -116 0 -145
18 -43 26 -52 54 -52 156 0 151 30 176 203 172 l109 -3 30 -34z"/>
<path d="M2072 1354 c-60 -31 -76 -66 -80 -180 -5 -129 14 -181 78 -214 38
-19 55 -21 166 -18 121 3 123 3 154 33 46 44 60 86 60 180 0 94 -14 136 -60
180 -31 30 -32 30 -158 33 -103 2 -133 -1 -160 -14z m299 -62 c28 -31 29 -35
29 -137 0 -102 -1 -106 -29 -137 -29 -33 -30 -33 -134 -36 -168 -6 -198 18
-205 159 -8 159 27 191 201 187 l109 -3 29 -33z"/>
<path d="M2610 1363 c-75 -28 -100 -81 -100 -212 0 -81 4 -102 23 -135 35 -62
73 -76 202 -76 125 0 164 13 203 70 20 29 22 45 22 145 0 100 -2 116 -23 146
-37 56 -76 69 -202 68 -60 0 -117 -3 -125 -6z m281 -71 c28 -31 29 -36 29
-137 0 -102 -1 -106 -29 -137 -29 -33 -29 -33 -139 -36 -172 -6 -202 20 -202
173 0 152 30 177 203 172 109 -2 109 -2 138 -35z"/>
</g>
</svg>
